<svg xmlns="http://www.w3.org/2000/svg" viewBox="0 0 100 100">
  <defs>
    <style>
      .a {
        fill: none;
        stroke: #000;
        stroke-miterlimit: 10;
        stroke-width: 2px;
      }
    </style>
  </defs>
  <title>advantage</title>
  <g>
    <path class="a" d="M12.17,89.9l17.31-7.63,42.83,4.4,7.63,3.81,5-7.63,6.45-5.28L88.25,65l-6.84-5.08,3.52-3.72,3.13,2.35,7.63-4.11,0.59-7-4.89-.78L86.1,45.31l1.47-4.4L79.94,20.08l-2.35-8.21-7.33.59a3.23,3.23,0,0,1-2.93,2.93,3.18,3.18,0,0,1-2.93-1.76L57.94,9.52l-20.83,7,1.47,5.57-6.75,3.52L20.68,45.6l-17,.59L11.29,72.3,6,79.34l3.52,4.11Z"/>
    <path class="a" d="M10.22,65.74L24.89,63,36.62,52.44l8,0.59L45.23,65,50.7,71l0.2,12.71"/>
    <path class="a" d="M51.09,72L65,67.11l5.28-8.61L82,58.8"/>
    <path class="a" d="M36.67,23.33l18,2.32,2.93,4.11,12.91-.29,1.76,6.16,13.49-.29"/>
    <path class="a" d="M60.09,69.07L63.8,50.59l5-2.35,3.81-12.32"/>
    <path class="a" d="M38,23l3.8,13.21-4.69,2.93,3,13.1"/>
  </g>
</svg>
