<svg xmlns="http://www.w3.org/2000/svg" viewBox="0 0 100 100">
  <defs>
    <style>
      .a {
        fill: none;
        stroke: #000;
        stroke-miterlimit: 10;
        stroke-width: 2px;
      }
    </style>
  </defs>
  <title>advantage</title>
  <g>
    <path class="a" d="M47.52,96.51L14.75,86.84V48.18L47.52,55v41.5Z"/>
    <path class="a" d="M47.52,96.51l37.73-9.67V48.18L47.52,55v41.5Z"/>
    <g>
      <path class="a" d="M62.22,62.32a8.45,8.45,0,0,0-2.36,5.58,9.53,9.53,0,0,0,.94,5.66,12.07,12.07,0,0,0,2.34,2.88c0.29,0.25.52,0.42,1,.81a20.5,20.5,0,0,1,2,2l4.24-1A23.73,23.73,0,0,1,71.89,76c0.66-.85,1.1-1.27,1.34-1.57,1.66-2.13,1.48-5.07,1.41-6.05-0.1-1.63-.28-4.37-2.36-6.21A7.93,7.93,0,0,0,62.22,62.32Z"/>
      <path class="a" d="M70.32,78.67l-3.93,1.1,0.13,5.58a2.08,2.08,0,0,0,3.88-1.18Z"/>
      <path class="a" d="M60.6,72.81l13.92-2.9"/>
      <path class="a" d="M52.36,67.75l2.36,0.83"/>
      <path class="a" d="M54.6,61.14L57.07,63"/>
      <path class="a" d="M59.79,56.78l0.94,1.89"/>
      <path class="a" d="M67.68,55l-0.24,2.48"/>
      <path class="a" d="M75.7,56.78l-2,2.36"/>
      <path class="a" d="M79,60.44l-1.65,2"/>
      <path class="a" d="M81,65.86l-2.12,1.41"/>
    </g>
    <g>
      <path class="a" d="M62.22,22.32a8.45,8.45,0,0,0-2.36,5.58,9.53,9.53,0,0,0,.94,5.66,12.07,12.07,0,0,0,2.34,2.88c0.29,0.25.52,0.42,1,.81a20.5,20.5,0,0,1,2,2l4.24-1A23.73,23.73,0,0,1,71.89,36c0.66-.85,1.1-1.27,1.34-1.57,1.66-2.13,1.48-5.07,1.41-6.05-0.1-1.63-.28-4.37-2.36-6.21A7.93,7.93,0,0,0,62.22,22.32Z"/>
      <path class="a" d="M70.32,38.67l-3.93,1.1,0.13,5.58a2.08,2.08,0,0,0,3.88-1.18Z"/>
      <path class="a" d="M60.6,32.81l13.92-2.9"/>
      <path class="a" d="M52.36,27.75l2.36,0.83"/>
      <path class="a" d="M54.6,21.14L57.07,23"/>
      <path class="a" d="M59.79,16.78l0.94,1.89"/>
      <path class="a" d="M67.68,15l-0.24,2.48"/>
      <path class="a" d="M75.7,16.78l-2,2.36"/>
      <path class="a" d="M79,20.44l-1.65,2"/>
      <path class="a" d="M81,25.86l-2.12,1.41"/>
    </g>
  </g>
  <path class="a" d="M47.38,55.13L14.88,48,14.75,8.56,47.52,15.4Z"/>
  <path class="a" d="M47.63,55.5l37.63-7.25V8.56L47.52,15.4Z"/>
  <path class="a" d="M14.75,8.45L52,3.38,85.25,8.21"/>
  <path class="a" d="M33.85,5.81l32.54,6.13"/>
  <g>
    <path class="a" d="M34.86,22.71c1.69,1.76,1.94,4.24,2.07,5.58a10.71,10.71,0,0,1-.83,5.66A11.82,11.82,0,0,1,34,36.83c-0.25.25-.46,0.42-0.84,0.81a19.62,19.62,0,0,0-1.73,2l-3.73-1a24.11,24.11,0,0,0-1.38-2.28c-0.58-.85-1-1.27-1.17-1.57-1.46-2.13-1.3-5.07-1.24-6.05,0.09-1.63.24-4.37,2.07-6.21A6.33,6.33,0,0,1,34.86,22.71Z"/>
    <path class="a" d="M27.75,39.06l3.45,1.1-0.11,5.58a1.79,1.79,0,0,1-2,1,2.11,2.11,0,0,1-1.45-2.2Z"/>
    <path class="a" d="M36.28,33.2L24,30.3"/>
    <path class="a" d="M43.53,28.13L41.46,29"/>
    <path class="a" d="M41.56,21.53l-2.18,1.89"/>
    <path class="a" d="M37,17.17l-0.83,1.89"/>
    <path class="a" d="M30.06,15.4l0.21,2.48"/>
    <path class="a" d="M23,17.17l1.76,2.36"/>
    <path class="a" d="M20.12,20.82l1.45,2"/>
    <path class="a" d="M18.36,26.25l1.86,1.41"/>
  </g>
  <g>
    <path class="a" d="M34.86,62.71c1.69,1.76,1.94,4.24,2.07,5.58a10.71,10.71,0,0,1-.83,5.66A11.82,11.82,0,0,1,34,76.83c-0.25.25-.46,0.42-0.84,0.81a19.62,19.62,0,0,0-1.73,2l-3.73-1a24.11,24.11,0,0,0-1.38-2.28c-0.58-.85-1-1.27-1.17-1.57-1.46-2.13-1.3-5.07-1.24-6.05,0.09-1.63.24-4.37,2.07-6.21A6.33,6.33,0,0,1,34.86,62.71Z"/>
    <path class="a" d="M27.75,79.06l3.45,1.1-0.11,5.58a1.79,1.79,0,0,1-2,1,2.11,2.11,0,0,1-1.45-2.2Z"/>
    <path class="a" d="M36.28,73.2L24,70.3"/>
    <path class="a" d="M43.53,68.13L41.46,69"/>
    <path class="a" d="M41.56,61.53l-2.18,1.89"/>
    <path class="a" d="M37,57.17l-0.83,1.89"/>
    <path class="a" d="M30.06,55.4l0.21,2.48"/>
    <path class="a" d="M23,57.17l1.76,2.36"/>
    <path class="a" d="M20.12,60.82l1.45,2"/>
    <path class="a" d="M18.36,66.25l1.86,1.41"/>
  </g>
</svg>
