<svg xmlns="http://www.w3.org/2000/svg" xmlns:xlink="http://www.w3.org/1999/xlink" viewBox="0 0 100 100">
  <defs>
    <style>
      .a, .b {
        fill: none;
      }

      .b {
        stroke: #000;
        stroke-miterlimit: 10;
        stroke-width: 2px;
      }

      .c {
        clip-path: url(#a);
      }
    </style>
    <clipPath id="a">
      <path class="a" d="M0,0V100H100V0H0ZM97,56.64A18.7,18.7,0,0,1,78.39,75.48C79.11,78,80,80.6,80.85,83.23c0.49,1.53,1.05,3,1.56,4.5a15.75,15.75,0,0,1-4-1.49C72.38,83.33,70.26,77,69.72,75H56.56A18.34,18.34,0,0,1,43.4,69.71,18.1,18.1,0,0,1,38,56.64V54.32C38,44,46.2,35,56.56,35H78.63C89,35,97,44,97,54.32v2.32Z"/>
    </clipPath>
  </defs>
  <title>advantage</title>
  <path class="b" d="M78.63,75.48Q79.7,79.27,81,83.23q0.74,2.29,1.5,4.5a14.68,14.68,0,0,1-4-1.25c-6.07-2.91-8.21-9.21-8.75-11H56.56a19.3,19.3,0,0,1-13.31-5.53,18.78,18.78,0,0,1-5.53-13.31V54.32A18.9,18.9,0,0,1,56.56,35.48H78.63A18.9,18.9,0,0,1,97.47,54.32v2.32A18.9,18.9,0,0,1,78.63,75.48Z"/>
  <g class="c">
    <path class="b" d="M21,56.83q-1.07,3.79-2.34,7.75-0.74,2.29-1.5,4.5a14.68,14.68,0,0,0,4-1.25c6.07-2.91,8.21-9.21,8.75-11H43.07a19.3,19.3,0,0,0,13.31-5.53A18.78,18.78,0,0,0,61.91,38V35.67A18.9,18.9,0,0,0,43.07,16.83H21A18.9,18.9,0,0,0,2.16,35.67V38A18.9,18.9,0,0,0,21,56.83Z"/>
  </g>
  <path d="M30.37,39.26a0.44,0.44,0,0,1-.14-0.32,3.64,3.64,0,0,1,0-.48A3.88,3.88,0,0,1,31,36.78a14.54,14.54,0,0,1,1.52-1.69,12,12,0,0,0,1.07-1.15A1.65,1.65,0,0,0,34,33a1.16,1.16,0,0,0-.42-1.07,1.84,1.84,0,0,0-1.22-.41,1.93,1.93,0,0,0-2.08,1.62,1.08,1.08,0,0,1-.27.41,0.68,0.68,0,0,1-.46.14h-3a0.48,0.48,0,0,1-.38-0.17A0.66,0.66,0,0,1,26,33.08a4.57,4.57,0,0,1,.8-2.37A5.43,5.43,0,0,1,29,28.84a8,8,0,0,1,3.54-.72,7.71,7.71,0,0,1,3.41.65,4.41,4.41,0,0,1,1.88,1.59,3.6,3.6,0,0,1,.57,1.9,3.85,3.85,0,0,1-.53,2,12.82,12.82,0,0,1-1.51,1.94q-0.62.68-.94,1.1a4.07,4.07,0,0,0-.53.89,2.72,2.72,0,0,0-.16.57,1.9,1.9,0,0,1-.33.48,0.57,0.57,0,0,1-.4.14H30.69A0.44,0.44,0,0,1,30.37,39.26Zm0,4.91a0.54,0.54,0,0,1-.17-0.41V41a0.58,0.58,0,0,1,.59-0.59h3.06a0.58,0.58,0,0,1,.59.59v2.72a0.54,0.54,0,0,1-.17.41,0.6,0.6,0,0,1-.42.16H30.76A0.6,0.6,0,0,1,30.34,44.17Z"/>
  <path d="M66.75,62.41a0.54,0.54,0,0,1-.17-0.4V59.07a0.57,0.57,0,0,1,.17-0.42,0.55,0.55,0,0,1,.4-0.17h2.94a0.55,0.55,0,0,1,.4.17,0.58,0.58,0,0,1,.17.42V62a0.57,0.57,0,0,1-.16.4,0.54,0.54,0,0,1-.41.17H67.14A0.55,0.55,0,0,1,66.75,62.41Zm0.07-5.16a0.57,0.57,0,0,1-.17-0.42V47.17a0.54,0.54,0,0,1,.17-0.41,0.6,0.6,0,0,1,.42-0.16H70a0.59,0.59,0,0,1,.42.16,0.54,0.54,0,0,1,.17.41v9.66a0.59,0.59,0,0,1-.59.59H67.24A0.57,0.57,0,0,1,66.81,57.25Z"/>
</svg>
