<svg xmlns="http://www.w3.org/2000/svg" viewBox="0 0 100 100"><defs><style>.a,.b{fill:none}.b{stroke:#000;stroke-miterlimit:10;stroke-width:2px}.c{clip-path:url(#a)}</style><clipPath id="a"><path class="a" d="M0 0v100h100V0H0zm97 56.64a18.7 18.7 0 0 1-18.61 18.84c.72 2.52 1.61 5.12 2.46 7.75.49 1.53 1.05 3 1.56 4.5a15.75 15.75 0 0 1-4-1.49C72.38 83.33 70.26 77 69.72 75H56.56a18.34 18.34 0 0 1-13.16-5.29A18.1 18.1 0 0 1 38 56.64v-2.32C38 44 46.2 35 56.56 35h22.07C89 35 97 44 97 54.32v2.32z"/></clipPath></defs><title>advantage</title><path class="b" d="M78.63 75.48q1.07 3.79 2.37 7.75.74 2.29 1.5 4.5a14.68 14.68 0 0 1-4-1.25c-6.07-2.91-8.21-9.21-8.75-11H56.56a19.3 19.3 0 0 1-13.31-5.53 18.78 18.78 0 0 1-5.53-13.31v-2.32a18.9 18.9 0 0 1 18.84-18.84h22.07a18.9 18.9 0 0 1 18.84 18.84v2.32a18.9 18.9 0 0 1-18.84 18.84z"/><g class="c"><path class="b" d="M21 56.83q-1.07 3.79-2.34 7.75-.74 2.29-1.5 4.5a14.68 14.68 0 0 0 4-1.25c6.07-2.91 8.21-9.21 8.75-11h13.16a19.3 19.3 0 0 0 13.31-5.53A18.78 18.78 0 0 0 61.91 38v-2.33a18.9 18.9 0 0 0-18.84-18.84H21A18.9 18.9 0 0 0 2.16 35.67V38A18.9 18.9 0 0 0 21 56.83z"/></g><path d="M30.37 39.26a.44.44 0 0 1-.14-.32 3.64 3.64 0 0 1 0-.48 3.88 3.88 0 0 1 .77-1.68 14.54 14.54 0 0 1 1.52-1.69 12 12 0 0 0 1.07-1.15A1.65 1.65 0 0 0 34 33a1.16 1.16 0 0 0-.42-1.07 1.84 1.84 0 0 0-1.22-.41 1.93 1.93 0 0 0-2.08 1.62 1.08 1.08 0 0 1-.27.41.68.68 0 0 1-.46.14h-3a.48.48 0 0 1-.38-.17.66.66 0 0 1-.17-.44 4.57 4.57 0 0 1 .8-2.37 5.43 5.43 0 0 1 2.2-1.87 8 8 0 0 1 3.54-.72 7.71 7.71 0 0 1 3.41.65 4.41 4.41 0 0 1 1.88 1.59 3.6 3.6 0 0 1 .57 1.9 3.85 3.85 0 0 1-.53 2 12.82 12.82 0 0 1-1.51 1.94q-.62.68-.94 1.1a4.07 4.07 0 0 0-.53.89 2.72 2.72 0 0 0-.16.57 1.9 1.9 0 0 1-.33.48.57.57 0 0 1-.4.14h-3.31a.44.44 0 0 1-.32-.12zm0 4.91a.54.54 0 0 1-.17-.41V41a.58.58 0 0 1 .59-.59h3.06a.58.58 0 0 1 .59.59v2.72a.54.54 0 0 1-.17.41.6.6 0 0 1-.42.16h-3.09a.6.6 0 0 1-.42-.12zm36.38 18.24a.54.54 0 0 1-.17-.4v-2.94a.57.57 0 0 1 .17-.42.55.55 0 0 1 .4-.17h2.94a.55.55 0 0 1 .4.17.58.58 0 0 1 .17.42V62a.57.57 0 0 1-.16.4.54.54 0 0 1-.41.17h-2.95a.55.55 0 0 1-.39-.16zm.07-5.16a.57.57 0 0 1-.17-.42v-9.66a.54.54 0 0 1 .17-.41.6.6 0 0 1 .42-.16H70a.59.59 0 0 1 .42.16.54.54 0 0 1 .17.41v9.66a.59.59 0 0 1-.59.59h-2.76a.57.57 0 0 1-.43-.17z"/></svg>