<svg xmlns="http://www.w3.org/2000/svg" viewBox="0 0 100 100"><defs><style>.a{fill:none;stroke:#000;stroke-miterlimit:10;stroke-width:2px}</style></defs><title>advantage</title><path class="a" d="M47.52 96.51l-32.77-9.67V48.18L47.52 55v41.5zm0 0l37.73-9.67V48.18L47.52 55v41.5z"/><path class="a" d="M62.22 62.32a8.45 8.45 0 0 0-2.36 5.58 9.53 9.53 0 0 0 .94 5.66 12.07 12.07 0 0 0 2.34 2.88c.29.25.52.42 1 .81a20.5 20.5 0 0 1 2 2l4.24-1A23.73 23.73 0 0 1 71.89 76c.66-.85 1.1-1.27 1.34-1.57 1.66-2.13 1.48-5.07 1.41-6.05-.1-1.63-.28-4.37-2.36-6.21a7.93 7.93 0 0 0-10.06.15zm8.1 16.35l-3.93 1.1.13 5.58a2.08 2.08 0 0 0 3.88-1.18zm-9.72-5.86l13.92-2.9m-22.16-2.16l2.36.83m-.12-7.44L57.07 63m2.72-6.22l.94 1.89M67.68 55l-.24 2.48m8.26-.7l-2 2.36m5.3 1.3l-1.65 2M81 65.86l-2.12 1.41M62.22 22.32a8.45 8.45 0 0 0-2.36 5.58 9.53 9.53 0 0 0 .94 5.66 12.07 12.07 0 0 0 2.34 2.88c.29.25.52.42 1 .81a20.5 20.5 0 0 1 2 2l4.24-1A23.73 23.73 0 0 1 71.89 36c.66-.85 1.1-1.27 1.34-1.57 1.66-2.13 1.48-5.07 1.41-6.05-.1-1.63-.28-4.37-2.36-6.21a7.93 7.93 0 0 0-10.06.15zm8.1 16.35l-3.93 1.1.13 5.58a2.08 2.08 0 0 0 3.88-1.18zm-9.72-5.86l13.92-2.9m-22.16-2.16l2.36.83m-.12-7.44L57.07 23m2.72-6.22l.94 1.89M67.68 15l-.24 2.48m8.26-.7l-2 2.36m5.3 1.3l-1.65 2M81 25.86l-2.12 1.41"/><path class="a" d="M47.38 55.13L14.88 48l-.13-39.44 32.77 6.84zm.25.37l37.63-7.25V8.56L47.52 15.4zM14.75 8.45L52 3.38l33.25 4.83m-51.4-2.4l32.54 6.13"/><path class="a" d="M34.86 22.71c1.69 1.76 1.94 4.24 2.07 5.58a10.71 10.71 0 0 1-.83 5.66 11.82 11.82 0 0 1-2.1 2.88c-.25.25-.46.42-.84.81a19.62 19.62 0 0 0-1.73 2l-3.73-1a24.11 24.11 0 0 0-1.38-2.28c-.58-.85-1-1.27-1.17-1.57-1.46-2.13-1.3-5.07-1.24-6.05.09-1.63.24-4.37 2.07-6.21a6.33 6.33 0 0 1 8.88.18zm-7.11 16.35l3.45 1.1-.11 5.58a1.79 1.79 0 0 1-2 1 2.11 2.11 0 0 1-1.45-2.2zm8.53-5.86L24 30.3m19.53-2.17l-2.07.87m.1-7.47l-2.18 1.89M37 17.17l-.83 1.89m-6.11-3.66l.21 2.48M23 17.17l1.76 2.36m-4.64 1.29l1.45 2m-3.21 3.43l1.86 1.41m14.64 35.05c1.69 1.76 1.94 4.24 2.07 5.58a10.71 10.71 0 0 1-.83 5.66 11.82 11.82 0 0 1-2.1 2.88c-.25.25-.46.42-.84.81a19.62 19.62 0 0 0-1.73 2l-3.73-1a24.11 24.11 0 0 0-1.38-2.28c-.58-.85-1-1.27-1.17-1.57-1.46-2.13-1.3-5.07-1.24-6.05.09-1.63.24-4.37 2.07-6.21a6.33 6.33 0 0 1 8.88.18zm-7.11 16.35l3.45 1.1-.11 5.58a1.79 1.79 0 0 1-2 1 2.11 2.11 0 0 1-1.45-2.2zm8.53-5.86L24 70.3m19.53-2.17l-2.07.87m.1-7.47l-2.18 1.89M37 57.17l-.83 1.89m-6.11-3.66l.21 2.48M23 57.17l1.76 2.36m-4.64 1.29l1.45 2m-3.21 3.43l1.86 1.41"/></svg>