<svg xmlns="http://www.w3.org/2000/svg" viewBox="0 0 100 100"><defs><style>.a,.c{fill:none}.b{clip-path:url(#a)}.c{stroke:#000;stroke-miterlimit:10;stroke-width:2px}.d{clip-path:url(#b)}</style><clipPath id="a"><ellipse class="a" cx="50.25" cy="80.76" rx="16.16" ry="4.69"/></clipPath><clipPath id="b"><path class="a" d="M-10-7v119h119V-7H-10zm85.73 41.05L50.5 79.31 25.27 34.05c-.87-1.74-1.35-5.19-1.35-8.11a26.59 26.59 0 0 1 53.17.06c0 2.94-.49 6.31-1.36 8.05z"/></clipPath></defs><title>advantage</title><g class="b"><path class="c" d="M3.7 61.46l93.1 38.6m.09-38.37L3.61 99.83"/></g><g class="d"><ellipse class="c" cx="50.25" cy="82.83" rx="43.02" ry="14.45"/><ellipse class="c" cx="50.25" cy="82.07" rx="29.9" ry="8.68"/></g><path class="c" d="M75 27.08A24.49 24.49 0 0 0 26 27a19.76 19.76 0 0 0 1.25 7.47l23.25 41.7 23.24-41.69a19.36 19.36 0 0 0 1.26-7.4z"/><circle class="c" cx="50.5" cy="25.66" r="12.36"/></svg>