<svg xmlns="http://www.w3.org/2000/svg" viewBox="0 0 100 100"><defs><style>.a{fill:none;stroke:#000;stroke-miterlimit:10;stroke-width:2px}</style></defs><title>advantage</title><path class="a" d="M12.17 89.9l17.31-7.63 42.83 4.4 7.63 3.81 5-7.63 6.45-5.28L88.25 65l-6.84-5.08 3.52-3.72 3.13 2.35 7.63-4.11.59-7-4.89-.78-5.29-1.35 1.47-4.4-7.63-20.83-2.35-8.21-7.33.59a3.23 3.23 0 0 1-2.93 2.93 3.18 3.18 0 0 1-2.93-1.76l-6.46-4.11-20.83 7 1.47 5.57-6.75 3.52L20.68 45.6l-17 .59 7.61 26.11L6 79.34l3.52 4.11z"/><path class="a" d="M10.22 65.74L24.89 63l11.73-10.56 8 .59.61 11.97 5.47 6 .2 12.71M51.09 72L65 67.11l5.28-8.61 11.72.3M36.67 23.33l18 2.32 2.93 4.11 12.91-.29 1.76 6.16 13.49-.29"/><path class="a" d="M60.09 69.07l3.71-18.48 5-2.35 3.81-12.32M38 23l3.8 13.21-4.69 2.93 3 13.1"/></svg>